# xmcd
#
# Track frame offsets: 
#        150
#        11549
#        21372
#        33895
#        43870
#        55718
#        68243
#        80541
#        89241
#        100414
#        112264
#        125762
#        134910
#        146308
#        155906
#        165128
#
# Disc length: 2345 seconds
#
# Revision: 0
# Processed by: cddbd v1.5.2PL0 Copyright (c) Steve Scherf et al.
# Submitted via: ExactAudioCopy v1.0b1
#
DISCID=e6092710
DTITLE=Various Artist - Valadiers Vs. Seminoles
DYEAR=1996
DGENRE=R&B
TTITLE0=The Valadiers - Greetings (This Is Uncle Sam)
TTITLE1=The Valadiers - Take A Chance
TTITLE2=The Valadiers - Greetings (This Is Uncle Sam) (alt. mix)
TTITLE3=The Valadiers - Take A Chance (alt. mix)
TTITLE4=The Valadiers - Because I Love Her
TTITLE5=The Valadiers - While I'm Away
TTITLE6=The Valadiers - I Found A Girl
TTITLE7=The Valadiers - You'll Be Sorry Someday
TTITLE8=The Seminoles - It Takes A Lot
TTITLE9=The Seminoles - I Can't Stand It
TTITLE10=The Seminoles - Meant To Be
TTITLE11=The Seminoles - Cheatin' Heart
TTITLE12=The Seminoles - Open Your Eyes
TTITLE13=The Seminoles - True Love
TTITLE14=The Seminoles - Forever
TTITLE15=The Seminoles - You Can Lump It
EXTD=
EXTT0=
EXTT1=
EXTT2=
EXTT3=
EXTT4=
EXTT5=
EXTT6=
EXTT7=
EXTT8=
EXTT9=
EXTT10=
EXTT11=
EXTT12=
EXTT13=
EXTT14=
EXTT15=
PLAYORDER=
